<svg width="1604" height="405" viewBox="0 0 1604 405" fill="none" xmlns="http://www.w3.org/2000/svg">
<path fill-rule="evenodd" clip-rule="evenodd" d="M0.926967 95.2299C0.508494 95.4357 0.198354 95.5911 0 95.6914V30.2879C0.577729 30.0621 1.16344 29.8348 1.75705 29.6059C19.891 22.6141 45.6116 14.1249 76.2366 8.03356C137.167 -4.08562 219.928 -7.15369 300.707 32.8196C343.535 54.0126 374.345 88.1046 398.965 124.139C417.013 150.554 432.967 180.026 447.768 207.37C452.785 216.637 457.67 225.661 462.459 234.237C482.249 269.682 500.896 298.575 523.266 318.116C544.293 336.485 568.963 346.911 603.642 344.292C638.469 341.661 667.518 326.12 694.891 301.639C722.872 276.614 747.399 243.858 773.614 208.45L775.607 205.757L775.608 205.757C800.399 172.261 827.098 136.188 857.919 108.674C890.323 79.7478 929.496 58.2065 978.901 58.2065C1070.27 58.2065 1128.54 103.423 1176.93 151.806C1187.85 162.725 1198.49 174.042 1208.81 185.011L1208.82 185.025L1208.83 185.03C1209.82 186.083 1210.8 187.133 1211.79 188.179C1223.16 200.265 1234.21 211.927 1245.6 223.046C1268.36 245.267 1291.5 264.335 1318.12 278.029C1371.96 305.721 1442.44 311.542 1502.4 309.412C1531.87 308.365 1557.76 305.444 1576.25 302.785C1585.48 301.458 1592.82 300.203 1597.79 299.293C1600.28 298.838 1602.17 298.47 1603.4 298.223C1603.62 298.179 1603.82 298.139 1604 298.103V359.133C1598.85 360.028 1592.38 361.083 1584.79 362.174C1564.7 365.062 1536.62 368.234 1504.53 369.374C1441.36 371.619 1358.34 366.19 1290.68 331.384C1256.55 313.828 1228.5 290.209 1203.69 265.977C1191.29 253.87 1179.45 241.364 1168.1 229.3C1167.26 228.409 1166.42 227.52 1165.59 226.635L1165.2 226.22L1165.19 226.212L1165.17 226.193C1154.75 215.11 1144.73 204.463 1134.5 194.233C1090.26 149.99 1046.53 118.206 978.901 118.206C948.806 118.206 923.254 130.78 897.876 153.434C871.744 176.762 848.207 208.532 821.836 244.152C796.326 278.608 768.24 316.535 734.889 346.362C700.932 376.732 659.932 400.211 608.16 404.121C556.24 408.043 515.986 391.426 483.792 363.303C452.94 336.352 430.069 299.303 410.071 263.488C404.429 253.382 399.023 243.398 393.699 233.567C379.332 207.034 365.573 181.623 349.424 157.987C327.746 126.258 304.019 101.403 274.097 86.5957C209.376 54.5693 141.386 56.2506 87.9413 66.8808C61.3787 72.1641 39.0053 79.5496 23.3422 85.5888C15.5303 88.6008 9.44297 91.2564 5.40046 93.1115C3.38072 94.0383 1.87615 94.7631 0.926967 95.2299ZM155.445 31.9975C159.712 31.9969 164.019 32.0766 168.36 32.2438L168.514 28.2468C164.12 28.0775 159.762 27.9969 155.444 27.9975L155.445 31.9975ZM129.629 32.9601C133.876 32.6473 138.178 32.4052 142.528 32.242L142.378 28.2448C137.979 28.4098 133.629 28.6546 129.335 28.9709L129.629 32.9601ZM181.254 32.9977C185.512 33.3327 189.797 33.7563 194.105 34.2749L194.583 30.3036C190.219 29.7782 185.879 29.3493 181.568 29.0101L181.254 32.9977ZM103.936 35.7493C108.141 35.1483 112.419 34.6067 116.765 34.1342L116.333 30.1576C111.941 30.6351 107.618 31.1824 103.37 31.7896L103.936 35.7493ZM206.889 36.0896C211.105 36.7802 215.337 37.5663 219.583 38.4539L220.401 34.5385C216.098 33.6388 211.808 32.8421 207.536 32.1422L206.889 36.0896ZM78.4349 40.2443C82.5746 39.3777 86.8154 38.5562 91.1491 37.7916L90.4541 33.8525C86.0774 34.6246 81.795 35.4542 77.6153 36.3291L78.4349 40.2443ZM232.16 41.3774C236.292 42.436 240.431 43.5953 244.575 44.8607L245.743 41.0351C241.54 39.7517 237.342 38.576 233.153 37.5026L232.16 41.3774ZM53.3224 46.3149C57.3467 45.2113 61.5147 44.1316 65.8152 43.0914L64.8748 39.2035C60.5336 40.2535 56.3265 41.3434 52.2645 42.4573L53.3224 46.3149ZM256.815 48.909C260.828 50.3402 264.842 51.8758 268.853 53.5206L270.371 49.8197C266.301 48.151 262.23 46.5933 258.158 45.1414L256.815 48.909ZM28.5733 53.9133C32.4478 52.5938 36.5512 51.2592 40.8659 49.9344L39.6918 46.1106C35.3368 47.4478 31.195 48.7948 27.2837 50.1269L28.5733 53.9133ZM280.664 58.6901C282.616 59.5994 284.566 60.536 286.515 61.5002C288.458 62.462 290.376 63.4569 292.268 64.4839L294.176 60.9685C292.24 59.9176 290.278 58.8995 288.289 57.9152C286.312 56.9369 284.333 55.9868 282.353 55.0642L280.664 58.6901ZM4.33126 63.0394C7.86622 61.5715 11.8907 59.9671 16.3626 58.2855L14.9547 54.5415C10.4384 56.2398 6.37181 57.8609 2.79732 59.3452L4.33126 63.0394ZM303.362 71.0495C306.992 73.3806 310.525 75.8345 313.966 78.4025L316.358 75.1965C312.844 72.5744 309.235 70.067 305.524 67.6839L303.362 71.0495ZM324.06 86.4679C327.334 89.2625 330.524 92.1629 333.636 95.16L336.411 92.2788C333.244 89.2287 329.995 86.2743 326.656 83.4253L324.06 86.4679ZM978.901 90.2065C981.163 90.2065 983.401 90.2379 985.616 90.3L985.729 86.3016C983.476 86.2384 981.2 86.2065 978.901 86.2065C976.684 86.2065 974.49 86.2588 972.317 86.362L972.507 90.3575C974.616 90.2573 976.747 90.2065 978.901 90.2065ZM998.853 91.0536C1003.34 91.4417 1007.72 91.9598 1012.01 92.601L1012.61 88.6449C1008.23 87.9913 1003.76 87.4636 999.198 87.0685L998.853 91.0536ZM947.581 93.9925C951.623 92.9889 955.746 92.1747 959.955 91.5622L959.379 87.6038C955.038 88.2356 950.786 89.0753 946.617 90.1104L947.581 93.9925ZM1025.05 94.9783C1029.43 95.9248 1033.71 97.0033 1037.9 98.2053L1039 94.3604C1034.72 93.1341 1030.36 92.034 1025.89 91.0686L1025.05 94.9783ZM923.789 102.402C927.618 100.633 931.518 99.0382 935.494 97.6292L934.158 93.8589C930.062 95.3104 926.048 96.9522 922.112 98.7704L923.789 102.402ZM1050.5 102.282C1054.69 103.794 1058.79 105.432 1062.81 107.187L1064.41 103.522C1060.31 101.733 1056.13 100.062 1051.86 98.5195L1050.5 102.282ZM342.706 104.39C345.638 107.537 348.5 110.77 351.298 114.08L354.353 111.498C351.515 108.141 348.611 104.86 345.632 101.663L342.706 104.39ZM901.759 114.892C905.292 112.512 908.881 110.278 912.532 108.201L910.554 104.724C906.81 106.854 903.136 109.142 899.525 111.574L901.759 114.892ZM1074.77 112.879C1078.72 114.909 1082.59 117.052 1086.38 119.299L1088.42 115.857C1084.56 113.572 1080.62 111.39 1076.6 109.322L1074.77 112.879ZM881.665 130.401C884.893 127.594 888.163 124.901 891.481 122.333L889.032 119.17C885.65 121.788 882.322 124.529 879.04 127.382L881.665 130.401ZM1097.61 126.377C1101.29 128.838 1104.91 131.393 1108.47 134.034L1110.85 130.821C1107.24 128.144 1103.57 125.55 1099.83 123.051L1097.61 126.377ZM359.452 124.162C362.091 127.568 364.675 131.04 367.209 134.57L370.458 132.238C367.898 128.671 365.285 125.159 362.613 121.711L359.452 124.162ZM863.254 147.996C866.228 144.904 869.232 141.898 872.271 138.986L869.504 136.098C866.423 139.05 863.38 142.095 860.371 145.222L863.254 147.996ZM1118.97 142.191C1122.41 144.979 1125.8 147.842 1129.15 150.768L1131.79 147.756C1128.4 144.8 1124.97 141.905 1121.49 139.084L1118.97 142.191ZM374.614 145.249C377.021 148.838 379.385 152.474 381.712 156.149L385.092 154.01C382.748 150.307 380.364 146.641 377.935 143.021L374.614 145.249ZM846.149 166.981C848.932 163.707 851.735 160.493 854.562 157.349L851.588 154.675C848.734 157.849 845.906 161.09 843.101 164.39L846.149 166.981ZM1139.05 159.693C1142.29 162.711 1145.51 165.782 1148.7 168.897L1151.49 166.035C1148.28 162.9 1145.04 159.806 1141.77 156.763L1139.05 159.693ZM388.546 167.22C390.781 170.929 392.985 174.668 395.164 178.429L398.625 176.424C396.436 172.645 394.22 168.886 391.972 165.155L388.546 167.22ZM829.994 186.826C832.64 183.452 835.296 180.118 837.967 176.831L834.863 174.309C832.176 177.615 829.505 180.968 826.847 184.357L829.994 186.826ZM1158.16 178.319C1161.28 181.482 1164.38 184.679 1167.47 187.9L1170.36 185.129C1167.25 181.899 1164.14 178.689 1161.01 175.51L1158.16 178.319ZM401.615 189.75C403.743 193.538 405.851 197.341 407.945 201.15L411.45 199.224C409.352 195.406 407.238 191.592 405.103 187.791L401.615 189.75ZM1185.51 206.95L1185.55 206.994L1185.87 207.328L1188.78 204.588L1188.48 204.268C1185.52 201.12 1182.56 197.974 1179.6 194.839L1176.69 197.587C1179.59 200.656 1182.49 203.738 1185.39 206.825L1185.46 206.897L1185.51 206.95ZM814.432 207.175C817.006 203.743 819.581 200.333 822.164 196.951L818.985 194.524C816.394 197.916 813.811 201.336 811.232 204.775L814.432 207.175ZM418.97 221.41L418.985 221.438L420.413 224.076L423.93 222.171L422.516 219.559L422.503 219.535C420.91 216.593 419.313 213.644 417.711 210.693L414.196 212.602C415.792 215.541 417.382 218.478 418.97 221.41ZM1195.05 217.076C1198.12 220.319 1201.2 223.557 1204.3 226.781L1207.18 224.009C1204.1 220.795 1201.02 217.565 1197.96 214.327L1195.05 217.076ZM799.122 227.775L800.432 226.005C802.545 223.151 804.654 220.302 806.763 217.461L803.551 215.077C801.43 217.935 799.308 220.802 797.184 223.671L795.907 225.395L799.122 227.775ZM1213.66 236.395C1216.8 239.579 1219.97 242.739 1223.17 245.867L1225.96 243.005C1222.78 239.897 1219.63 236.754 1216.5 233.585L1213.66 236.395ZM426.645 235.551C428.74 239.392 430.838 243.215 432.945 247.011L436.443 245.07C434.342 241.284 432.248 237.47 430.156 233.635L426.645 235.551ZM783.778 248.37C786.355 244.95 788.92 241.518 791.475 238.083L788.266 235.696C785.714 239.126 783.154 242.551 780.583 245.963L783.778 248.37ZM1232.89 255.144C1236.17 258.198 1239.48 261.21 1242.85 264.17L1245.49 261.165C1242.16 258.233 1238.87 255.247 1235.61 252.217L1232.89 255.144ZM768.094 268.746C770.746 265.389 773.379 262.005 775.995 258.602L772.824 256.165C770.217 259.556 767.595 262.925 764.955 266.266L768.094 268.746ZM439.36 258.418C441.536 262.23 443.728 266.007 445.942 269.737L449.382 267.696C447.181 263.987 445.001 260.231 442.834 256.435L439.36 258.418ZM1253.1 272.883C1256.57 275.726 1260.09 278.508 1263.68 281.22L1266.09 278.03C1262.55 275.352 1259.07 272.602 1255.64 269.79L1253.1 272.883ZM751.768 288.654C754.552 285.401 757.306 282.103 760.036 278.77L756.941 276.235C754.227 279.549 751.492 282.825 748.729 286.054L751.768 288.654ZM452.748 280.931C455.08 284.666 457.441 288.344 459.841 291.954L463.172 289.74C460.796 286.165 458.455 282.519 456.141 278.813L452.748 280.931ZM1274.59 289.114C1278.28 291.657 1282.04 294.122 1285.87 296.499L1287.98 293.099C1284.2 290.758 1280.5 288.329 1276.86 285.821L1274.59 289.114ZM734.488 307.789C737.45 304.701 740.374 301.549 743.265 298.344L740.294 295.665C737.429 298.843 734.533 301.964 731.601 305.02L734.488 307.789ZM1297.51 303.307C1299.48 304.39 1301.48 305.45 1303.49 306.485C1305.43 307.485 1307.39 308.459 1309.37 309.407L1311.1 305.801C1309.16 304.868 1307.23 303.911 1305.32 302.928C1303.34 301.91 1301.38 300.867 1299.44 299.802L1297.51 303.307ZM467.287 302.754C469.861 306.344 472.483 309.851 475.161 313.264L478.308 310.794C475.669 307.431 473.081 303.97 470.538 300.423L467.287 302.754ZM1321.36 314.782C1325.39 316.467 1329.47 318.055 1333.6 319.551L1334.96 315.791C1330.89 314.316 1326.87 312.75 1322.9 311.091L1321.36 314.782ZM715.956 325.731C719.15 322.881 722.296 319.947 725.398 316.938L722.613 314.067C719.548 317.039 716.443 319.935 713.293 322.746L715.956 325.731ZM1346.03 323.753C1350.2 325.06 1354.4 326.283 1358.63 327.424L1359.67 323.562C1355.49 322.434 1351.34 321.227 1347.23 319.936L1346.03 323.753ZM483.538 323.4C486.451 326.738 489.433 329.962 492.494 333.06L495.339 330.248C492.341 327.214 489.415 324.05 486.552 320.77L483.538 323.4ZM1371.35 330.601C1375.61 331.581 1379.89 332.485 1384.18 333.318L1384.94 329.391C1380.69 328.567 1376.46 327.672 1372.25 326.703L1371.35 330.601ZM1579.6 334.631C1584.39 333.952 1588.72 333.285 1592.55 332.665L1591.91 328.716C1588.11 329.333 1583.8 329.995 1579.04 330.671L1579.6 334.631ZM1397.08 335.606C1401.4 336.302 1405.72 336.93 1410.05 337.496L1410.56 333.529C1406.28 332.969 1402 332.346 1397.72 331.657L1397.08 335.606ZM1553.66 337.836C1558.19 337.357 1562.53 336.857 1566.64 336.35L1566.15 332.38C1562.06 332.885 1557.75 333.382 1553.24 333.858L1553.66 337.836ZM695.832 341.991C699.314 339.47 702.737 336.841 706.104 334.114L703.587 331.006C700.272 333.689 696.907 336.274 693.486 338.751L695.832 341.991ZM1527.59 340.122C1532.07 339.81 1536.43 339.464 1540.65 339.093L1540.3 335.108C1536.1 335.477 1531.76 335.821 1527.31 336.132L1527.59 340.122ZM1423.05 339.012C1427.42 339.46 1431.77 339.848 1436.1 340.18L1436.4 336.192C1432.1 335.862 1427.79 335.477 1423.46 335.033L1423.05 339.012ZM1501.47 341.462C1505.9 341.318 1510.25 341.134 1514.51 340.914L1514.31 336.92C1510.07 337.138 1505.74 337.321 1501.34 337.464L1501.47 341.462ZM1449.16 341.02C1453.55 341.25 1457.91 341.426 1462.24 341.553L1462.35 337.554C1458.06 337.428 1453.73 337.254 1449.37 337.026L1449.16 341.02ZM1475.32 341.794C1479.73 341.828 1484.09 341.815 1488.4 341.759L1488.35 337.76C1484.07 337.815 1479.73 337.828 1475.35 337.794L1475.32 341.794ZM502.097 342.114C505.431 345.032 508.859 347.802 512.39 350.409L514.766 347.191C511.329 344.653 507.987 341.954 504.731 339.104L502.097 342.114ZM673.969 355.86C677.756 353.791 681.473 351.591 685.123 349.27L682.977 345.895C679.398 348.17 675.758 350.325 672.051 352.35L673.969 355.86ZM523.387 357.777C527.16 360.056 531.046 362.154 535.056 364.059L536.772 360.445C532.887 358.6 529.118 356.565 525.455 354.353L523.387 357.777ZM650.37 366.608C654.45 365.109 658.451 363.459 662.376 361.668L660.716 358.029C656.88 359.779 652.974 361.39 648.991 362.853L650.37 366.608ZM547.31 369.119C551.42 370.571 555.652 371.828 560.015 372.879L560.951 368.99C556.723 367.972 552.623 366.754 548.642 365.347L547.31 369.119ZM625.39 373.597C629.676 372.759 633.879 371.758 638.003 370.604L636.925 366.752C632.902 367.878 628.803 368.854 624.622 369.672L625.39 373.597ZM573.013 375.329C577.276 375.919 581.654 376.322 586.156 376.528L586.339 372.533C581.957 372.331 577.7 371.939 573.561 371.367L573.013 375.329ZM606.052 376.201C608.251 376.035 610.429 375.827 612.587 375.579L612.13 371.605C610.024 371.847 607.898 372.05 605.75 372.212C603.532 372.38 601.344 372.503 599.184 372.582L599.331 376.579C601.543 376.498 603.783 376.372 606.052 376.201Z" fill="#EEEFF1"/>
</svg>
