<svg width="941" height="63" viewBox="0 0 941 63" fill="none" xmlns="http://www.w3.org/2000/svg">
<path d="M871.521 37.6884C838.217 37.6884 804.913 38.1211 771.61 37.5704C744.904 37.1376 718.199 34.8166 691.454 34.5413C668.341 34.3052 645.072 34.3838 622.114 36.8229C573.896 41.8977 525.912 49.4116 477.655 54.1716C454.425 56.4533 431.702 52.6374 409.057 43.5893C372.122 28.837 333.821 35.9574 296.223 43.6679C274.28 48.1526 252.534 53.5422 230.591 57.7515C211.109 61.4888 193.774 57.9876 177.961 43.8647C162.032 29.6238 141.495 33.1643 123.067 37.531C96.2836 43.8253 70.0859 52.6767 43.7319 60.7806C27.2167 65.8554 12.3023 62.5116 2.22918 47.7987C-1.08947 42.9599 -0.269556 33.5184 1.87781 27.3421C2.7758 24.7456 13.4735 22.5032 17.2997 24.5882C29.5202 31.2366 40.2179 26.7127 51.5794 23.3295C85.0002 13.3766 118.499 2.71556 153.911 5.7447C165.39 6.72819 178.43 9.4033 187.332 15.973C205.409 29.3484 223.993 26.8306 243.319 23.4867C276.623 17.7038 309.771 10.8982 343.191 6.02011C368.062 2.40087 392.503 5.50865 416.397 14.8321C446.343 26.4766 477.773 23.4868 508.656 19.907C560.27 13.9273 611.612 4.76118 663.344 0.551855C691.923 -1.76918 721.049 3.93501 749.98 4.68246C788.633 5.66594 827.324 5.11519 866.016 5.66594C885.967 5.94132 906.035 6.37409 925.829 8.65579C931.374 9.28522 939.455 15.9729 940.627 21.2051C943.008 31.7481 933.521 32.4956 925.634 32.9283C907.635 33.9905 889.637 35.1312 871.638 36.2721C871.638 36.7442 871.599 37.2163 871.56 37.649L871.521 37.6884Z" fill="#FF6B6B"/>
</svg>
